# xmcd
#
# Track frame offsets: 
#        150
#        21355
#        39010
#        63310
#        83795
#        104597
#        125830
#        149395
#        167182
#        186077
#        200467
#        229447
#        251810
#        284935
#        304515
#
# Disc length: 9558 seconds
#
# Revision: 0
# Processed by: cddbd v1.5.2PL0 Copyright (c) Steve Scherf et al.
# Submitted via: ExactAudioCopy v0.99pb3
#
DISCID=e325540f
DTITLE=Eric Clapton - Chronicles (The Best Of)
DYEAR=1999
DGENRE=Blues
TTITLE0=Blue Eyes Blue
TTITLE1=Change The World
TTITLE2=My Father's Eyes
TTITLE3=Tears In Heaven
TTITLE4=Layla (Unplugged)
TTITLE5=Pretending
TTITLE6=Bad Love
TTITLE7=Before You Accuse Me (Take A Look At Yourself)
TTITLE8=It's In The Way You Use It
TTITLE9=Forever Man
TTITLE10=Running On Faith
TTITLE11=She's Waiting
TTITLE12=River Of Fears
TTITLE13=(I) Get Lost
TTITLE14=Wonderful Tonight (Live)
EXTD=
EXTT0=
EXTT1=
EXTT2=
EXTT3=
EXTT4=
EXTT5=
EXTT6=
EXTT7=
EXTT8=
EXTT9=
EXTT10=
EXTT11=
EXTT12=
EXTT13=
EXTT14=
PLAYORDER=
